<svg xmlns="http://www.w3.org/2000/svg" xmlns:xlink="http://www.w3.org/1999/xlink" width="500" zoomAndPan="magnify" viewBox="0 0 375 374.999991" height="500" preserveAspectRatio="xMidYMid meet" version="1.0"><defs><g/><clipPath id="6fbcdfe3f8"><path d="M 56.433594 29.621094 L 302.890625 29.621094 L 302.890625 264 L 56.433594 264 Z M 56.433594 29.621094 " clip-rule="nonzero"/></clipPath></defs><path fill="#ccffbb" d="M 113.738281 84.816406 C 108.359375 88.535156 103.574219 92.90625 99.382812 97.925781 C 95.191406 102.945312 91.742188 108.4375 89.042969 114.398438 C 84.800781 123.800781 82.640625 134.019531 80.964844 144.179688 C 78.953125 156.429688 77.605469 169.046875 80.175781 181.191406 C 82.105469 190.332031 86.203125 198.886719 90.886719 206.960938 C 95.492188 214.875 101.09375 222.761719 109.339844 226.722656 C 117.445312 230.617188 126.894531 230.144531 135.84375 229.261719 C 160.023438 226.882812 184.144531 222.105469 208.390625 223.523438 C 213.773438 223.839844 219.15625 224.464844 224.535156 224.253906 C 228.710938 223.996094 232.859375 223.496094 236.972656 222.742188 C 242.847656 221.800781 248.976562 220.761719 253.777344 217.242188 C 256.019531 215.597656 257.863281 213.484375 259.6875 211.394531 C 267.449219 202.507812 275.464844 193.132812 278.171875 181.644531 C 279.332031 176.734375 279.457031 171.648438 279.578125 166.601562 C 279.859375 154.90625 280.105469 142.957031 276.59375 131.800781 C 274.027344 123.644531 269.871094 109.085938 265.121094 101.976562 C 259.992188 94.324219 253.292969 91.199219 246.28125 85.164062 C 232.984375 73.769531 216.074219 71.328125 198.597656 70.390625 C 181.117188 69.457031 163.691406 72.476562 146.527344 75.902344 " fill-opacity="1" fill-rule="nonzero"/><path fill="#ccffbb" d="M 214.933594 121.351562 C 214.933594 121.710938 214.882812 122.078125 214.863281 122.441406 L 214.839844 122.441406 Z M 214.933594 121.351562 " fill-opacity="1" fill-rule="nonzero"/><path fill="#ffc089" d="M 212.003906 101.667969 C 211.96875 101.214844 210.882812 99.789062 210.421875 99.632812 C 204.230469 97.542969 197.492188 98.183594 190.988281 98.84375 C 184.65625 99.484375 162.308594 100.179688 160.507812 99.898438 C 157.269531 99.394531 154.132812 99.464844 150.890625 98.957031 L 149.035156 98.957031 C 148.867188 103.109375 148.703125 107.261719 148.535156 111.414062 C 148.433594 113.777344 148.335938 116.144531 148.429688 118.511719 C 148.726562 126.5625 148.238281 134.640625 151.769531 141.890625 C 153 144.40625 156.257812 147.21875 158.414062 149.003906 C 159.738281 150.105469 166.273438 154.035156 167.9375 154.847656 C 169.832031 155.792969 172.746094 155.550781 174.816406 155.976562 C 175.195312 156.101562 175.558594 156.070312 175.910156 155.882812 C 176.027344 155.800781 179.339844 156.582031 180.96875 156.507812 C 187.070312 156.242188 192.824219 154.683594 198.230469 151.832031 C 199.917969 150.984375 201.449219 149.910156 202.816406 148.609375 C 204.390625 147.027344 209.882812 136.003906 210.929688 132.238281 C 213.671875 122.355469 212.828125 111.886719 212.003906 101.667969 Z M 191.449219 139.445312 C 190.214844 141.457031 187.972656 142.605469 185.757812 143.410156 C 182.769531 144.5 179.6875 145.140625 176.515625 145.335938 C 176.550781 145.773438 175.417969 145.171875 175.039062 144.96875 C 171.769531 143.246094 168.675781 142.144531 167.222656 138.746094 C 166.417969 136.859375 166.570312 134.21875 168.390625 133.292969 C 169.160156 132.964844 169.964844 132.824219 170.800781 132.871094 L 186.652344 132.539062 C 187.949219 132.507812 189.320312 132.503906 190.433594 133.167969 C 192.457031 134.378906 192.6875 137.4375 191.449219 139.445312 Z M 191.449219 139.445312 " fill-opacity="1" fill-rule="nonzero"/><path fill="#ffc089" d="M 205.042969 158.179688 C 203.480469 155.832031 201.964844 154.378906 201.527344 151.414062 C 201.398438 150.605469 200.304688 150.46875 199.796875 150.957031 C 195.160156 155.394531 186.324219 156.363281 180.222656 156.390625 C 173.449219 156.402344 167.011719 154.929688 160.917969 151.972656 C 160.941406 150.785156 159.105469 150.324219 158.90625 151.582031 C 158.523438 154.066406 157.53125 156.273438 155.925781 158.207031 C 155.191406 159.136719 154.382812 159.953125 154.261719 161.195312 C 154.011719 163.765625 157.027344 166.523438 158.65625 168.152344 C 163.890625 173.382812 172.957031 174.910156 180.058594 175.226562 C 187.398438 175.554688 194.75 173.441406 199.835938 167.925781 C 201.011719 166.652344 202.042969 165.253906 203.089844 163.875 C 203.9375 162.757812 205.601562 161.265625 205.601562 159.722656 C 205.597656 159.140625 205.414062 158.628906 205.042969 158.179688 Z M 205.042969 158.179688 " fill-opacity="1" fill-rule="nonzero"/><path fill="#52993a" d="M 150.402344 155.191406 C 145.808594 157.207031 140.734375 158.3125 136.140625 160.34375 C 133.011719 161.722656 130.347656 164.058594 127.554688 166.035156 C 122.847656 169.359375 118.117188 173.007812 115.222656 177.988281 C 107.945312 190.523438 104.199219 205.953125 103.417969 220.429688 C 103.351562 221.585938 102.914062 222.773438 103.246094 223.875 C 104.175781 226.488281 105.75 228.621094 107.972656 230.273438 C 111.394531 232.875 115.191406 236.523438 118.527344 239.230469 C 120.632812 241.019531 122.867188 242.628906 125.230469 244.0625 C 140.035156 252.5625 156.5 259.820312 173.53125 260.875 C 185.804688 261.636719 197.9375 258.390625 209.808594 255.171875 C 207.355469 253.863281 204.710938 252.339844 203.753906 249.734375 C 203.347656 248.382812 203.207031 247.007812 203.335938 245.601562 C 203.625 237.097656 204.945312 228.753906 207.300781 220.574219 C 207.976562 218.214844 208.738281 215.652344 207.828125 213.371094 C 207.195312 211.777344 205.792969 210.507812 205.472656 208.84375 C 204.96875 206.226562 207.234375 203.8125 207.265625 201.144531 C 207.265625 199.132812 206.058594 197.011719 207.042969 195.265625 C 207.773438 193.964844 209.414062 193.527344 210.507812 192.511719 C 211.230469 191.742188 211.78125 190.859375 212.15625 189.871094 C 216.753906 179.617188 221.199219 168.863281 222.558594 157.707031 C 219.132812 156.410156 214.289062 155.066406 210.773438 154.066406 C 210.304688 153.871094 209.835938 153.871094 209.367188 154.066406 C 208.925781 154.410156 208.679688 154.855469 208.625 155.410156 C 206.082031 165.648438 196.195312 171.292969 186.445312 175.296875 C 182.816406 176.804688 171.429688 175.644531 169.574219 174.367188 C 165.761719 171.738281 161.339844 170.109375 157.515625 167.503906 C 153.691406 164.898438 150.34375 160.851562 150.441406 156.21875 " fill-opacity="1" fill-rule="nonzero"/><path fill="#52993a" d="M 233.738281 162.503906 C 231.453125 168.316406 229.546875 174.246094 228.019531 180.300781 C 227.707031 181.53125 227.417969 182.816406 227.667969 184.050781 C 228.171875 186.53125 230.621094 188.019531 232.320312 189.890625 C 235.070312 192.910156 235.9375 197.15625 237.03125 201.105469 C 237.441406 202.585938 237.917969 204.125 238.945312 205.234375 C 239.734375 206.023438 240.617188 206.675781 241.601562 207.199219 C 247.808594 210.941406 253.515625 215.332031 258.734375 220.363281 C 261.199219 217.550781 263.320312 214.496094 265.089844 211.203125 C 265.550781 210.492188 265.792969 209.71875 265.816406 208.871094 C 265.75 207.730469 264.886719 206.816406 264.132812 205.953125 C 262.363281 203.929688 260.960938 201.679688 259.917969 199.203125 C 258.875 196.726562 258.25 194.144531 258.039062 191.464844 C 257.910156 189.726562 257.957031 187.945312 257.390625 186.289062 C 256.808594 184.824219 255.988281 183.503906 254.941406 182.328125 C 248.917969 174.859375 241.917969 168.460938 233.933594 163.140625 " fill-opacity="1" fill-rule="nonzero"/><path fill="#ffc089" d="M 239.070312 207.21875 C 236.902344 204.957031 235.296875 202.992188 234.371094 200.234375 C 235.058594 193 230.160156 185.472656 222.640625 184.40625 C 219.628906 183.984375 216.074219 184.808594 214.097656 187.269531 C 212.6875 189.035156 212.949219 191.730469 211.429688 193.273438 C 210.300781 194.425781 208.597656 194.898438 207.792969 196.394531 C 207.09375 197.699219 207.332031 198.910156 207.621094 200.296875 C 207.941406 201.804688 208.160156 202.367188 207.683594 203.867188 C 207.414062 204.710938 207.035156 205.464844 206.761719 206.292969 C 206.449219 207.046875 206.257812 207.835938 206.1875 208.652344 C 206.132812 212.710938 209.570312 212.628906 212.585938 212.171875 C 214.121094 211.925781 215.652344 211.953125 217.175781 212.261719 C 218.703125 212.566406 220.125 213.132812 221.445312 213.953125 C 224.039062 215.570312 225.21875 218.054688 226.972656 220.410156 C 228.726562 222.761719 231.4375 224.433594 234.433594 222.984375 C 237.917969 221.273438 240.714844 215.890625 240.964844 212.152344 C 241.039062 211.230469 240.910156 210.335938 240.578125 209.46875 C 240.246094 208.605469 239.742188 207.855469 239.070312 207.21875 Z M 239.070312 207.21875 " fill-opacity="1" fill-rule="nonzero"/><path fill="#6b503b" d="M 211.824219 214.621094 C 209.777344 216.296875 209.578125 219.277344 209.0625 221.867188 C 208.210938 226.175781 206.105469 230.113281 204.5 234.203125 C 202.898438 238.292969 201.789062 242.835938 203.019531 247.050781 C 203.621094 249.113281 204.929688 251.136719 206.949219 251.867188 C 208 252.1875 209.074219 252.304688 210.167969 252.222656 C 212.828125 252.164062 215.589844 251.890625 217.84375 250.484375 C 220.09375 249.074219 221.640625 246.210938 220.761719 243.703125 C 219.949219 241.367188 217.414062 240.0625 216.238281 237.886719 C 215.140625 235.847656 215.390625 233.359375 215.761719 231.089844 C 216.558594 226.175781 217.777344 221.375 219.417969 216.675781 C 219.65625 215.980469 219.917969 215.222656 219.671875 214.527344 C 219.308594 213.457031 218.015625 213.070312 216.894531 212.933594 C 215.21875 212.722656 213.542969 212.722656 211.867188 212.933594 " fill-opacity="1" fill-rule="nonzero"/><path fill="#6b503b" d="M 226.183594 185.339844 C 231.363281 171.179688 235.507812 156.726562 238.613281 141.972656 C 238.867188 140.75 239.117188 139.457031 238.6875 138.285156 C 237.960938 136.273438 235.628906 135.425781 233.574219 134.832031 C 233.015625 134.59375 232.449219 134.578125 231.878906 134.789062 C 231.515625 135.023438 231.242188 135.335938 231.058594 135.726562 C 226.828125 143.074219 224.746094 151.429688 222.71875 159.664062 L 218.515625 176.726562 C 217.972656 178.929688 217.652344 181.757812 219.523438 183.007812 C 221.15625 184.101562 223.605469 183.285156 225.136719 184.519531 " fill-opacity="1" fill-rule="nonzero"/><path fill="#6b503b" d="M 232.394531 120.933594 L 229.160156 127.886719 C 228.824219 128.609375 227.148438 131.304688 227.613281 131.945312 C 227.789062 132.1875 229.769531 132.890625 230.023438 133.042969 C 233.488281 135.007812 236.785156 134.324219 240.539062 135.644531 C 242.085938 136.179688 244.101562 136.539062 245.101562 135.242188 C 245.414062 134.761719 245.617188 134.242188 245.714844 133.675781 C 246.363281 130.992188 246.996094 128.300781 247.613281 125.601562 C 247.824219 124.984375 247.835938 124.359375 247.648438 123.734375 C 247.394531 123.257812 247.035156 122.878906 246.574219 122.601562 C 244.722656 121.300781 242.71875 120.300781 240.5625 119.605469 C 238.410156 118.914062 236.203125 118.554688 233.9375 118.527344 " fill-opacity="1" fill-rule="nonzero"/><path fill="#ffc035" d="M 100.542969 128.0625 C 95.5625 128.0625 90.4375 131.003906 85.898438 132.78125 C 84.320312 133.398438 82.285156 133.890625 80.816406 134.898438 C 81.148438 130.746094 81.214844 126.570312 80.390625 122.480469 C 79.609375 118.632812 77.9375 113.28125 73.800781 111.917969 C 73.667969 111.882812 73.535156 111.871094 73.398438 111.886719 C 73.261719 111.90625 73.136719 111.949219 73.015625 112.015625 C 72.898438 112.085938 72.796875 112.171875 72.710938 112.28125 C 72.628906 112.390625 72.566406 112.507812 72.53125 112.640625 C 71.183594 120.976562 69.941406 131.015625 76.445312 137.660156 C 77.027344 138.25 77.652344 138.789062 78.324219 139.269531 C 78.324219 139.34375 78.324219 139.417969 78.324219 139.488281 C 78.21875 140.449219 79.285156 140.703125 79.929688 140.265625 C 81.195312 140.929688 82.53125 141.410156 83.933594 141.707031 C 85.332031 142.003906 86.746094 142.109375 88.175781 142.019531 C 89.605469 141.933594 90.996094 141.652344 92.347656 141.183594 C 93.703125 140.714844 94.964844 140.074219 96.144531 139.261719 C 97.8125 138.078125 99.390625 136.785156 100.875 135.375 C 102.019531 134.328125 104.285156 132.59375 104.683594 130.949219 C 105.285156 128.488281 102.429688 128.054688 100.542969 128.0625 Z M 100.542969 128.0625 " fill-opacity="1" fill-rule="nonzero"/><path fill="#ffc035" d="M 96.238281 155.796875 C 95.863281 151.269531 90.929688 154.894531 89.046875 156.300781 C 84.746094 159.554688 81.441406 163.625 79.140625 168.503906 C 77.90625 167.449219 76.511719 166.679688 75.300781 165.519531 C 73.792969 164.0625 72.757812 162.175781 71.160156 160.757812 C 68.242188 158.167969 64.496094 156.757812 60.90625 155.394531 C 60.050781 155.066406 59.273438 156.1875 59.734375 156.902344 C 64.378906 164.222656 69.410156 176.34375 79.632812 176.316406 C 79.859375 176.328125 80.0625 176.261719 80.246094 176.121094 C 80.425781 175.984375 80.542969 175.800781 80.589844 175.578125 C 88.84375 173.203125 96.980469 164.863281 96.238281 155.796875 Z M 96.238281 155.796875 " fill-opacity="1" fill-rule="nonzero"/><path fill="#ffc035" d="M 97.578125 181.992188 C 96.527344 182.601562 95.414062 184.589844 94.773438 185.542969 C 93.488281 187.460938 92.375 189.472656 91.4375 191.582031 C 89.960938 194.925781 88.957031 198.410156 88.421875 202.027344 C 85.824219 199.449219 82.890625 197.351562 79.609375 195.734375 C 76.332031 194.117188 72.882812 193.0625 69.257812 192.574219 C 69.089844 192.554688 68.925781 192.570312 68.765625 192.625 C 68.601562 192.679688 68.460938 192.761719 68.335938 192.878906 C 68.210938 192.992188 68.117188 193.128906 68.050781 193.285156 C 67.984375 193.441406 67.953125 193.605469 67.957031 193.773438 C 67.222656 193.1875 65.867188 193.722656 66.292969 194.78125 C 69.308594 202.097656 75.636719 207.414062 83.585938 208.417969 C 87.027344 208.867188 91.753906 208.742188 94.710938 206.667969 C 97.671875 204.597656 99.320312 200.371094 100.359375 197.109375 C 101.054688 194.917969 103.628906 178.484375 97.578125 181.992188 Z M 97.578125 181.992188 " fill-opacity="1" fill-rule="nonzero"/><path fill="#ffc035" d="M 137.476562 131.886719 C 137.328125 131.644531 137.117188 131.484375 136.84375 131.414062 C 136.570312 131.34375 136.308594 131.375 136.0625 131.511719 C 133.207031 133.320312 131.945312 136.179688 131.085938 139.359375 C 129.800781 144.148438 128.75 149.023438 127.625 153.863281 C 124.476562 151.460938 122.210938 147.886719 118.46875 146.320312 C 114.042969 144.472656 108.246094 144.703125 103.546875 144.195312 C 102.59375 144.09375 102.269531 145.363281 102.8125 145.964844 C 106.417969 149.941406 109.804688 154.644531 114.910156 156.738281 C 119.578125 158.652344 124.703125 158.472656 129.574219 157.527344 C 129.75 157.527344 129.917969 157.484375 130.074219 157.398438 C 134.457031 154.988281 137.109375 150.789062 138.28125 146.007812 C 139.347656 141.710938 140.351562 135.667969 137.476562 131.886719 Z M 137.476562 131.886719 " fill-opacity="1" fill-rule="nonzero"/><path fill="#ffc035" d="M 293.015625 195.339844 C 291.050781 192 284.953125 194.332031 282.394531 195.277344 C 278.148438 196.824219 274.328125 199.085938 270.929688 202.0625 C 270.898438 199.988281 270.632812 197.945312 270.140625 195.933594 C 269.648438 193.921875 268.941406 191.988281 268.015625 190.132812 C 267.089844 188.28125 265.96875 186.554688 264.65625 184.953125 C 263.34375 183.351562 261.867188 181.914062 260.230469 180.644531 C 259.703125 180.238281 258.617188 180.230469 258.496094 181.101562 C 257.085938 191.351562 259.453125 202.03125 268.457031 208.085938 C 268.660156 208.238281 268.882812 208.292969 269.128906 208.25 C 269.378906 208.210938 269.570312 208.085938 269.714844 207.882812 C 269.914062 208.175781 270.1875 208.300781 270.539062 208.257812 C 276.210938 207.898438 281.519531 206.324219 286.472656 203.535156 C 288.75 202.246094 295.128906 198.945312 293.015625 195.339844 Z M 293.015625 195.339844 " fill-opacity="1" fill-rule="nonzero"/><path fill="#ffc035" d="M 301.582031 156.175781 C 301.574219 155.890625 301.46875 155.648438 301.269531 155.449219 C 301.070312 155.25 300.828125 155.144531 300.546875 155.136719 C 296.4375 154.632812 291.398438 159.359375 288.34375 161.632812 C 284.957031 164.074219 282.019531 166.972656 279.527344 170.324219 C 277.476562 165.589844 274.589844 161.429688 270.871094 157.855469 C 269.007812 156.078125 262.828125 150.132812 261.921875 155.691406 C 261.097656 160.753906 264.546875 166.367188 267.449219 170.15625 C 270.835938 174.582031 275.027344 177.417969 280.679688 175.976562 C 280.945312 176.226562 281.253906 176.304688 281.605469 176.210938 C 286.707031 175.035156 291.730469 173.644531 295.417969 169.671875 C 298.761719 166.101562 301.8125 161.238281 301.582031 156.175781 Z M 301.582031 156.175781 " fill-opacity="1" fill-rule="nonzero"/><path fill="#ffc035" d="M 288.152344 115.742188 C 285.804688 111.320312 282.347656 116.132812 281.015625 118.722656 C 279.875 120.957031 279.175781 123.324219 278.925781 125.824219 C 278.613281 128.90625 279.296875 131.964844 278.851562 135 C 277.222656 133.78125 275.492188 132.730469 273.660156 131.847656 C 271.828125 130.964844 269.925781 130.269531 267.957031 129.757812 C 265.992188 129.246094 263.992188 128.929688 261.960938 128.804688 C 259.933594 128.683594 257.910156 128.761719 255.894531 129.03125 C 255.222656 129.121094 254.46875 129.882812 255 130.59375 C 256.269531 132.292969 257.714844 133.824219 259.347656 135.183594 C 260.976562 136.542969 262.742188 137.691406 264.644531 138.632812 C 266.546875 139.574219 268.53125 140.277344 270.601562 140.746094 C 272.667969 141.214844 274.765625 141.433594 276.886719 141.402344 C 277.230469 141.660156 277.589844 141.683594 277.964844 141.480469 L 278.21875 141.347656 L 278.445312 141.347656 C 278.863281 141.332031 279.15625 141.128906 279.324219 140.746094 C 281.230469 139.632812 282.917969 138.253906 284.386719 136.601562 C 285.855469 134.953125 287.03125 133.117188 287.917969 131.089844 C 289.820312 126.644531 290.5 120.167969 288.152344 115.742188 Z M 288.152344 115.742188 " fill-opacity="1" fill-rule="nonzero"/><path fill="#ffc035" d="M 249.230469 94.03125 C 244.207031 83.386719 235.351562 75.59375 226.523438 68.117188 C 221.742188 64.09375 217.078125 59.964844 212.582031 55.601562 C 208.082031 51.238281 202.984375 47.6875 197.65625 44.25 L 188.707031 38.492188 C 185.972656 36.730469 182.882812 33.929688 179.742188 33.007812 C 177.707031 32.414062 175.96875 33.449219 174.214844 34.40625 C 171.277344 36.019531 168.402344 37.757812 165.589844 39.574219 C 154.675781 46.597656 144.792969 54.863281 135.941406 64.359375 C 130.789062 69.894531 126.484375 76.515625 120.550781 81.265625 C 116.707031 84.335938 112.007812 86.832031 110.277344 91.582031 C 109.6875 91.480469 109.070312 91.796875 109.171875 92.546875 C 109.707031 96.613281 116.5625 96.574219 119.609375 97.035156 C 125.234375 97.792969 130.882812 98.136719 136.558594 98.070312 C 149.121094 98.070312 161.628906 97.367188 174.214844 98.207031 C 186.796875 99.046875 199.390625 100.574219 212.035156 100.53125 C 217.722656 100.546875 223.382812 100.152344 229.015625 99.339844 C 235.421875 98.382812 241.804688 95.648438 248.292969 95.59375 C 248.699219 95.601562 249.003906 95.433594 249.214844 95.085938 C 249.425781 94.738281 249.429688 94.386719 249.230469 94.03125 Z M 249.230469 94.03125 " fill-opacity="1" fill-rule="nonzero"/><path fill="#6b503b" d="M 231.175781 121.917969 C 228.78125 120.828125 226.289062 120.046875 223.699219 119.578125 C 221.109375 119.105469 218.503906 118.964844 215.878906 119.148438 C 215.203125 119.136719 214.574219 119.304688 213.992188 119.648438 C 213.148438 120.261719 212.964844 121.425781 212.847656 122.46875 C 212.179688 128.378906 211.519531 134.289062 210.878906 140.195312 C 210.425781 144.292969 208.632812 150.183594 211.675781 152.953125 C 213.386719 154.507812 217.335938 153.925781 219.566406 154.542969 C 223.796875 155.722656 227.832031 157.386719 231.664062 159.527344 C 235.5 161.667969 239.03125 164.230469 242.257812 167.21875 C 243.292969 168.175781 244.71875 169.257812 245.976562 168.601562 C 246.480469 168.273438 246.871094 167.84375 247.144531 167.308594 C 252.082031 159.339844 256.027344 150.910156 258.980469 142.011719 C 259.355469 141.125 259.523438 140.199219 259.484375 139.234375 C 259.355469 138.132812 258.703125 137.175781 258.070312 136.273438 C 254.507812 131.1875 249.835938 125.519531 243.644531 125.886719 " fill-opacity="1" fill-rule="nonzero"/><path fill="#52993a" d="M 244.066406 209.828125 C 243.574219 211.410156 242.945312 212.933594 242.175781 214.402344 C 241.402344 215.867188 240.503906 217.25 239.476562 218.546875 C 238.449219 219.847656 237.3125 221.039062 236.066406 222.128906 C 234.816406 223.21875 233.480469 224.179688 232.054688 225.023438 C 231.023438 225.625 229.855469 226.28125 229.542969 227.425781 C 229.230469 228.574219 229.960938 229.851562 230.679688 230.878906 C 234.664062 236.5625 238.792969 242.191406 243.742188 247.042969 C 248.695312 251.890625 254.578125 255.964844 261.207031 258.019531 C 263.679688 258.789062 266.3125 259.273438 268.855469 258.777344 C 273.785156 257.816406 277.429688 253.246094 278.632812 248.371094 C 279.839844 243.496094 279.035156 238.339844 277.851562 233.453125 C 275.894531 225.371094 272.96875 217.65625 269.078125 210.3125 L 264.75 215.085938 C 262.835938 217.203125 260.28125 219.519531 257.535156 218.761719 C 256.761719 218.511719 256.046875 218.140625 255.390625 217.660156 L 245.105469 210.929688 " fill-opacity="1" fill-rule="nonzero"/><path fill="#8c4038" d="M 168.929688 132.75 C 168.800781 136.59375 168.078125 140.59375 171.238281 142.777344 C 174.398438 144.960938 181.34375 145.25 184.886719 143.78125 C 185.773438 143.402344 186.597656 142.917969 187.363281 142.332031 C 188.128906 141.746094 188.808594 141.074219 189.410156 140.320312 C 190.007812 139.566406 190.507812 138.75 190.90625 137.871094 C 191.308594 136.992188 191.59375 136.078125 191.765625 135.128906 C 187.933594 134.738281 184.0625 135.183594 180.207031 135.261719 C 176.355469 135.335938 172.359375 135.003906 168.945312 133.207031 " fill-opacity="1" fill-rule="nonzero"/><path fill="#ffffff" d="M 193.011719 135.714844 C 192.691406 132.796875 185.347656 132.648438 183.636719 132.421875 C 177.945312 131.660156 172.324219 131.363281 166.683594 132.628906 C 165.382812 132.921875 165.9375 134.917969 167.234375 134.640625 L 167.46875 134.589844 L 168.175781 135.917969 C 167.496094 136.328125 167.394531 137.566406 168.382812 137.828125 C 173.667969 139.246094 179.027344 139.644531 184.464844 139.011719 C 186.195312 138.792969 193.328125 138.589844 193.011719 135.714844 Z M 193.011719 135.714844 " fill-opacity="1" fill-rule="nonzero"/><path fill="#ffc089" d="M 214.726562 109.496094 C 213.652344 109.425781 213.449219 110.761719 214.105469 111.328125 L 213.957031 111.507812 C 213.828125 111.398438 213.679688 111.328125 213.511719 111.296875 C 213.34375 111.261719 213.179688 111.269531 213.015625 111.320312 C 212.851562 111.371094 212.710938 111.457031 212.59375 111.582031 C 212.472656 111.703125 212.390625 111.847656 212.34375 112.011719 C 211.914062 113.796875 211.691406 115.605469 211.683594 117.441406 C 211.683594 118.835938 211.683594 121.621094 212.414062 122.863281 C 213.394531 124.519531 215.203125 123.417969 216.371094 122.363281 C 219.472656 119.5 220.523438 109.878906 214.726562 109.496094 Z M 214.726562 109.496094 " fill-opacity="1" fill-rule="nonzero"/><path fill="#ffc089" d="M 148.570312 114.34375 C 148.542969 114.167969 148.480469 114.011719 148.382812 113.863281 C 148.289062 113.71875 148.164062 113.601562 148.011719 113.511719 C 147.863281 113.425781 147.703125 113.371094 147.527344 113.355469 C 147.355469 113.339844 147.183594 113.359375 147.019531 113.421875 L 146.992188 113.371094 C 147.9375 112.777344 147.394531 111.058594 146.21875 111.480469 C 143.640625 112.40625 142.386719 114.609375 141.632812 117.144531 C 140.695312 120.320312 141.632812 122.941406 143.980469 125.253906 C 145.695312 126.949219 147.140625 126.84375 148.230469 124.65625 C 149.84375 121.410156 148.976562 117.734375 148.570312 114.34375 Z M 148.570312 114.34375 " fill-opacity="1" fill-rule="nonzero"/><path fill="#967259" d="M 210.097656 214.929688 C 207.152344 222.3125 205.222656 229.953125 204.308594 237.851562 C 203.621094 243.828125 203.878906 251.433594 210.914062 253.25 C 213.496094 253.917969 214.601562 249.917969 212.019531 249.253906 C 205.636719 247.605469 208.476562 236.679688 209.320312 232.214844 C 210.394531 226.667969 211.984375 221.273438 214.089844 216.03125 C 215.09375 213.550781 211.074219 212.476562 210.097656 214.929688 Z M 210.097656 214.929688 " fill-opacity="1" fill-rule="nonzero"/><path fill="#967259" d="M 221.429688 182.730469 C 226.367188 167.800781 229.667969 152.378906 233.402344 137.097656 C 234.03125 134.507812 230.039062 133.402344 229.40625 135.996094 C 225.671875 151.277344 222.371094 166.683594 217.441406 181.628906 C 216.601562 184.171875 220.597656 185.257812 221.429688 182.730469 Z M 221.429688 182.730469 " fill-opacity="1" fill-rule="nonzero"/><path fill="#967259" d="M 232.425781 118.601562 C 230.507812 122.789062 228.988281 127.117188 227.863281 131.582031 C 227.21875 134.175781 231.210938 135.28125 231.859375 132.683594 C 232.871094 128.558594 234.253906 124.5625 236.003906 120.695312 C 237.101562 118.285156 233.53125 116.167969 232.425781 118.601562 Z M 232.425781 118.601562 " fill-opacity="1" fill-rule="nonzero"/><path fill="#447233" d="M 134.203125 246.050781 L 134.203125 236.058594 C 134.203125 230.125 134.507812 224.101562 133.238281 218.261719 C 133.003906 217.195312 131.554688 217.363281 131.226562 218.261719 C 128.269531 226.679688 126 235.28125 124.410156 244.0625 C 124.195312 245.265625 125.859375 245.828125 126.316406 244.894531 L 131.667969 248.164062 C 131.589844 248.253906 131.527344 248.355469 131.492188 248.46875 C 131.453125 248.585938 131.441406 248.703125 131.453125 248.820312 C 131.464844 248.941406 131.503906 249.054688 131.5625 249.160156 C 131.625 249.261719 131.703125 249.351562 131.800781 249.421875 L 132.105469 249.671875 C 132.273438 249.835938 132.476562 249.929688 132.707031 249.960938 C 132.941406 249.992188 133.15625 249.949219 133.363281 249.835938 C 134.664062 248.957031 134.203125 247.484375 134.203125 246.050781 Z M 134.203125 246.050781 " fill-opacity="1" fill-rule="nonzero"/><path fill="#447233" d="M 276.089844 253.332031 C 266.800781 257.128906 257.808594 251.820312 251.46875 245.121094 C 245.398438 238.722656 240.316406 231.285156 235.820312 223.71875 C 235.667969 223.476562 235.457031 223.320312 235.183594 223.25 C 234.910156 223.179688 234.648438 223.210938 234.402344 223.347656 C 232.527344 224.136719 230.746094 225.101562 229.066406 226.246094 C 228.832031 226.398438 228.6875 226.609375 228.625 226.882812 C 228.558594 227.152344 228.597656 227.40625 228.738281 227.648438 C 228.738281 227.910156 228.832031 228.132812 229.015625 228.316406 C 236.457031 236.417969 241.683594 246.632812 250.625 253.320312 C 258.277344 259.054688 269.078125 261.371094 277.089844 255.0625 C 277.894531 254.4375 277.027344 252.941406 276.089844 253.332031 Z M 276.089844 253.332031 " fill-opacity="1" fill-rule="nonzero"/><path fill="#447233" d="M 235.246094 190.8125 C 235.75 186.128906 237.351562 181.410156 238.445312 176.832031 C 239.703125 171.605469 241.117188 163.351562 233.984375 161.832031 C 233.710938 161.769531 233.449219 161.804688 233.207031 161.945312 C 232.960938 162.085938 232.796875 162.289062 232.714844 162.558594 C 230.3125 168.59375 227.964844 174.722656 225.988281 180.925781 C 225.40625 182.765625 225.207031 183.976562 226.253906 185.65625 C 227.664062 187.898438 229.679688 189.90625 231.347656 191.957031 C 231.472656 192.136719 231.640625 192.246094 231.851562 192.292969 C 232.0625 192.335938 232.261719 192.300781 232.445312 192.191406 L 233.160156 194.042969 C 233.160156 194.199219 233.207031 194.351562 233.230469 194.503906 C 233.859375 198.171875 235.316406 201.800781 236.40625 205.347656 C 236.796875 206.617188 238.796875 206.074219 238.417969 204.796875 C 237.050781 200.371094 234.734375 195.433594 235.246094 190.8125 Z M 235.246094 190.8125 " fill-opacity="1" fill-rule="nonzero"/><path fill="#447233" d="M 234.578125 238.605469 C 233.40625 234.640625 230.207031 231.648438 229.050781 227.699219 C 228.042969 224.222656 228.859375 220.75 226.421875 217.792969 C 226.34375 217.6875 226.25 217.605469 226.136719 217.546875 C 226.023438 217.484375 225.902344 217.449219 225.777344 217.441406 C 225.648438 217.4375 225.523438 217.457031 225.40625 217.503906 C 225.285156 217.550781 225.183594 217.621094 225.09375 217.71875 C 224.558594 216.429688 223.789062 215.296875 222.789062 214.324219 C 222.582031 214.078125 222.316406 213.972656 221.992188 214.015625 C 221.914062 213.851562 221.792969 213.730469 221.628906 213.648438 C 221.46875 213.566406 221.296875 213.539062 221.121094 213.570312 C 219.332031 213.757812 218.351562 214.730469 218 216.539062 C 217.359375 219.828125 217.402344 223.257812 216.734375 226.578125 C 216.035156 230.042969 214.21875 238.609375 218.605469 240.726562 C 218.738281 240.792969 218.878906 240.839844 219.019531 240.878906 C 219.757812 243.582031 221.496094 245.949219 220.527344 248.894531 C 220.503906 248.980469 220.492188 249.070312 220.492188 249.164062 C 220.492188 249.253906 220.503906 249.34375 220.527344 249.429688 C 220.550781 249.519531 220.585938 249.601562 220.632812 249.679688 C 220.679688 249.761719 220.734375 249.832031 220.796875 249.894531 C 220.863281 249.960938 220.933594 250.015625 221.011719 250.0625 C 221.089844 250.109375 221.171875 250.144531 221.261719 250.167969 C 221.347656 250.191406 221.4375 250.203125 221.53125 250.203125 C 221.621094 250.203125 221.710938 250.195312 221.796875 250.171875 C 225.425781 249.164062 230.367188 248.03125 233.425781 245.703125 C 235.523438 244.089844 235.25 240.894531 234.578125 238.605469 Z M 234.578125 238.605469 " fill-opacity="1" fill-rule="nonzero"/><path fill="#447233" d="M 185.90625 228.316406 C 180.882812 224.9375 175.855469 221.679688 171.332031 217.636719 C 171.214844 217.53125 171.078125 217.457031 170.925781 217.410156 C 170.773438 217.367188 170.621094 217.355469 170.460938 217.378906 C 170.304688 217.402344 170.160156 217.460938 170.03125 217.550781 C 169.898438 217.636719 169.792969 217.75 169.710938 217.886719 L 168.425781 217.195312 C 168.328125 216.875 168.242188 216.558594 168.167969 216.238281 C 167.855469 214.941406 165.855469 215.488281 166.15625 216.792969 C 168.824219 227.949219 182.34375 236.386719 193.203125 237.105469 C 193.488281 237.101562 193.730469 236.996094 193.929688 236.796875 C 194.128906 236.597656 194.234375 236.355469 194.238281 236.070312 C 194.519531 232.734375 188.203125 229.867188 185.90625 228.316406 Z M 185.90625 228.316406 " fill-opacity="1" fill-rule="nonzero"/><path fill="#447233" d="M 179.496094 259.875 C 178.453125 256.21875 174.785156 254.074219 171.882812 251.9375 C 167.636719 248.816406 163.308594 245.855469 159.570312 242.105469 C 159.460938 241.996094 159.332031 241.917969 159.1875 241.863281 C 159.039062 241.8125 158.890625 241.796875 158.738281 241.816406 C 158.582031 241.832031 158.441406 241.886719 158.3125 241.96875 C 158.183594 242.050781 158.078125 242.160156 157.996094 242.292969 L 157.097656 241.710938 C 157.007812 241.351562 156.929688 240.996094 156.871094 240.632812 C 156.660156 239.320312 154.664062 239.878906 154.859375 241.179688 C 155.710938 246.507812 160.140625 251.484375 163.988281 255.035156 C 168.007812 258.769531 172.910156 261.207031 178.480469 261.1875 C 178.640625 261.191406 178.796875 261.152344 178.941406 261.082031 C 179.089844 261.011719 179.210938 260.910156 179.3125 260.78125 C 179.410156 260.652344 179.476562 260.511719 179.507812 260.351562 C 179.539062 260.191406 179.535156 260.03125 179.496094 259.875 Z M 179.496094 259.875 " fill-opacity="1" fill-rule="nonzero"/><path fill="#dd9f72" d="M 201.886719 151.238281 C 201.886719 151.148438 201.875 151.058594 201.847656 150.972656 C 201.824219 150.882812 201.789062 150.800781 201.742188 150.722656 C 201.699219 150.644531 201.644531 150.574219 201.578125 150.511719 C 201.511719 150.445312 201.441406 150.390625 201.363281 150.347656 C 201.285156 150.300781 201.203125 150.269531 201.113281 150.246094 C 201.027344 150.222656 200.9375 150.210938 200.847656 150.210938 C 200.753906 150.210938 200.667969 150.222656 200.578125 150.246094 C 200.492188 150.269531 200.410156 150.304688 200.328125 150.347656 C 198.214844 151.644531 195.996094 152.722656 193.675781 153.582031 C 191.351562 154.441406 188.964844 155.070312 186.519531 155.460938 C 184.070312 155.855469 181.609375 156.003906 179.132812 155.914062 C 176.65625 155.824219 174.210938 155.496094 171.800781 154.925781 C 169.277344 154.332031 166.847656 153.472656 164.507812 152.351562 C 163.394531 151.8125 162.132812 150.800781 160.847656 150.839844 C 159.558594 150.882812 159.304688 151.464844 158.761719 152.597656 C 157.324219 155.570312 155.984375 157.628906 153 159.296875 C 152.757812 159.445312 152.601562 159.65625 152.527344 159.929688 C 152.457031 160.203125 152.488281 160.464844 152.628906 160.710938 C 153.457031 162.261719 154.292969 163.808594 155.140625 165.355469 C 155.339844 165.710938 155.640625 165.882812 156.050781 165.875 C 156.457031 165.863281 156.75 165.671875 156.925781 165.304688 C 157.21875 165.417969 157.5 165.382812 157.761719 165.210938 C 163.835938 161.535156 170.46875 165.234375 176.816406 165.898438 C 182.941406 166.542969 188.339844 164.460938 194.164062 162.964844 C 196.460938 162.378906 197.898438 162.644531 200.039062 163.5625 C 200.90625 163.941406 202.210938 164.777344 203.179688 164.667969 C 204.25 164.539062 204.808594 163.953125 205.257812 162.890625 C 207.074219 158.570312 201.773438 155.308594 201.886719 151.238281 Z M 201.886719 151.238281 " fill-opacity="1" fill-rule="nonzero"/><path fill="#dd9f72" d="M 213.296875 102.640625 C 211.617188 99.527344 208.351562 98.714844 205.035156 98.519531 C 198.835938 98.15625 192.5 98.585938 186.300781 98.640625 L 147.6875 98.988281 C 146.359375 98.988281 146.351562 101.070312 147.6875 101.0625 L 147.929688 101.0625 L 148.207031 102.261719 C 147.292969 102.507812 147.042969 104.007812 148.160156 104.25 C 158.921875 106.554688 169.851562 108.160156 180.867188 108.394531 C 191.320312 108.621094 202.898438 108.234375 212.675781 104.164062 C 212.828125 104.117188 212.964844 104.042969 213.082031 103.933594 C 213.203125 103.828125 213.289062 103.699219 213.351562 103.550781 C 213.410156 103.402344 213.4375 103.25 213.425781 103.089844 C 213.417969 102.929688 213.371094 102.78125 213.296875 102.640625 Z M 213.296875 102.640625 " fill-opacity="1" fill-rule="nonzero"/><path fill="#d39c2d" d="M 246.5625 86.480469 C 246.386719 86.332031 246.1875 86.25 245.957031 86.234375 C 245.730469 86.214844 245.515625 86.265625 245.320312 86.386719 C 245.003906 86.234375 244.703125 86.265625 244.421875 86.480469 C 235.648438 92.488281 225.007812 93.394531 214.667969 93.621094 C 203.328125 93.871094 191.984375 93.941406 180.644531 93.9375 C 157.835938 93.9375 134.628906 93.714844 112.59375 87.125 C 112.367188 87.066406 112.144531 87.082031 111.929688 87.167969 C 111.714844 87.257812 111.546875 87.402344 111.425781 87.601562 C 110.007812 89.894531 109.300781 92.390625 109.304688 95.089844 C 109.304688 95.324219 109.375 95.535156 109.515625 95.722656 C 109.65625 95.90625 109.839844 96.03125 110.066406 96.09375 C 137.753906 99.882812 165.707031 100.585938 193.617188 100.574219 C 207.410156 100.574219 221.472656 101.140625 235.207031 99.652344 C 238.15625 99.347656 241.082031 98.886719 243.984375 98.273438 C 245.910156 97.851562 248.234375 97.421875 249.617188 95.855469 C 252.574219 92.511719 249.191406 88.632812 246.5625 86.480469 Z M 246.5625 86.480469 " fill-opacity="1" fill-rule="nonzero"/><path fill="#81c469" d="M 151.78125 157.820312 C 151.644531 157.859375 151.515625 157.910156 151.378906 157.953125 L 150.710938 157.101562 C 150.886719 156.9375 150.996094 156.738281 151.042969 156.503906 C 151.085938 156.269531 151.054688 156.042969 150.945312 155.828125 C 150.839844 155.613281 150.675781 155.457031 150.460938 155.351562 C 150.246094 155.246094 150.019531 155.214844 149.785156 155.261719 C 135.117188 158.433594 120.691406 166.476562 113.101562 179.765625 C 109.304688 186.441406 106.792969 193.902344 104.488281 201.207031 C 101.804688 209.703125 101.972656 218.859375 102.4375 227.679688 C 102.488281 228.625 103.882812 229.1875 104.367188 228.179688 C 107.382812 221.988281 109.179688 215.332031 111.4375 208.847656 C 113.984375 201.542969 116.882812 194.339844 120.6875 187.59375 C 127.84375 174.910156 138.277344 164.382812 152.347656 159.796875 C 153.589844 159.402344 153.050781 157.402344 151.78125 157.820312 Z M 151.78125 157.820312 " fill-opacity="1" fill-rule="nonzero"/><path fill="#81c469" d="M 224.332031 159.535156 C 223.324219 154.628906 219.53125 154.125 215.210938 153.355469 C 213.515625 153.058594 210.128906 152.011719 208.492188 152.914062 C 206.984375 153.742188 206.519531 156.210938 205.917969 157.671875 C 205.859375 157.800781 205.832031 157.933594 205.839844 158.070312 C 205.84375 158.210938 205.882812 158.339844 205.953125 158.460938 C 206.023438 158.582031 206.117188 158.679688 206.234375 158.753906 C 206.351562 158.828125 206.476562 158.875 206.617188 158.886719 C 206.386719 159.523438 206.683594 160.324219 207.527344 160.222656 C 213.125 159.542969 218.636719 159.988281 224.054688 161.5625 C 224.851562 161.792969 224.480469 160.289062 224.332031 159.535156 Z M 224.332031 159.535156 " fill-opacity="1" fill-rule="nonzero"/><path fill="#ffd580" d="M 193.730469 53.117188 C 192.402344 50.945312 190.816406 48.988281 188.964844 47.242188 C 187.113281 45.496094 185.070312 44.023438 182.828125 42.824219 C 177.710938 40.148438 174.257812 41.988281 169.835938 45.152344 C 160.429688 51.886719 151.308594 59.097656 144.328125 68.40625 C 141.667969 71.15625 139.085938 73.996094 136.628906 76.925781 C 135.171875 78.664062 133.546875 80.515625 134.527344 82.863281 C 134.574219 83.015625 134.652344 83.148438 134.757812 83.265625 C 134.863281 83.382812 134.988281 83.46875 135.136719 83.53125 C 135.28125 83.589844 135.433594 83.613281 135.589844 83.605469 C 135.75 83.597656 135.898438 83.558594 136.035156 83.484375 C 140.230469 81.5625 143.617188 77.757812 147.160156 74.859375 C 151.542969 71.238281 156.101562 67.859375 160.839844 64.722656 C 165.140625 61.882812 169.640625 59.398438 174.332031 57.273438 C 177.4375 55.886719 180.425781 54.679688 183.882812 54.554688 C 186.871094 54.449219 189.820312 54.921875 192.820312 54.675781 C 192.914062 54.675781 193.003906 54.664062 193.089844 54.640625 C 193.179688 54.617188 193.261719 54.582031 193.339844 54.535156 C 193.421875 54.492188 193.492188 54.4375 193.558594 54.371094 C 193.621094 54.308594 193.675781 54.234375 193.722656 54.15625 C 193.769531 54.078125 193.804688 53.996094 193.828125 53.90625 C 193.851562 53.820312 193.863281 53.730469 193.867188 53.636719 C 193.867188 53.546875 193.855469 53.457031 193.832031 53.367188 C 193.808594 53.28125 193.777344 53.195312 193.730469 53.117188 Z M 193.730469 53.117188 " fill-opacity="1" fill-rule="nonzero"/><g clip-path="url(#6fbcdfe3f8)"><path fill="#3f2622" d="M 295.347656 191.984375 C 289.417969 190.476562 282.132812 192.394531 276.414062 196.238281 C 278.554688 190.628906 280.195312 184.871094 281.339844 178.972656 C 281.441406 178.890625 281.53125 178.796875 281.613281 178.691406 C 292.355469 177.289062 302.148438 165.367188 302.777344 154.820312 C 302.773438 154.546875 302.71875 154.28125 302.613281 154.03125 C 302.507812 153.777344 302.359375 153.554688 302.164062 153.359375 C 301.972656 153.164062 301.75 153.015625 301.496094 152.910156 C 301.242188 152.804688 300.980469 152.75 300.707031 152.746094 C 294.53125 153.109375 288.0625 157.214844 283.765625 162.683594 C 284.34375 155.628906 283.929688 148.636719 282.523438 141.699219 C 291.066406 135.015625 293.398438 119.75 288.59375 110.394531 C 288.453125 110.15625 288.277344 109.957031 288.058594 109.789062 C 287.839844 109.625 287.597656 109.507812 287.332031 109.4375 C 287.066406 109.367188 286.796875 109.351562 286.527344 109.386719 C 286.253906 109.421875 286 109.507812 285.761719 109.644531 C 281.507812 112.492188 278.402344 117.652344 276.929688 123.25 C 274.453125 116.472656 271.300781 110.023438 267.46875 103.90625 C 265.0625 100.066406 262.417969 96.394531 259.535156 92.894531 C 256.648438 89.398438 253.550781 86.101562 250.238281 83.007812 C 246.921875 79.914062 243.421875 77.050781 239.738281 74.414062 C 236.050781 71.777344 232.207031 69.394531 228.210938 67.257812 C 226.242188 65.542969 224.285156 63.816406 222.375 62.117188 C 211.351562 52.316406 200.070312 42.496094 187.890625 34.113281 C 185.308594 32.339844 181.976562 29.605469 178.65625 29.824219 C 174.636719 30.101562 170.542969 33.132812 167.324219 35.308594 C 154.894531 43.703125 143.597656 53.980469 132.742188 64.285156 C 130.917969 66.015625 130.125 66.800781 128.332031 68.535156 L 127.101562 69.175781 C 121.972656 72.164062 117.140625 75.566406 112.597656 79.386719 C 108.050781 83.207031 103.867188 87.382812 100.039062 91.921875 C 96.210938 96.457031 92.796875 101.289062 89.796875 106.410156 C 86.796875 111.535156 84.253906 116.875 82.167969 122.4375 C 80.625 117.15625 77.617188 112.375 73.570312 109.644531 C 73.332031 109.507812 73.078125 109.421875 72.804688 109.386719 C 72.53125 109.351562 72.261719 109.367188 71.996094 109.4375 C 71.734375 109.507812 71.488281 109.625 71.269531 109.789062 C 71.050781 109.957031 70.871094 110.15625 70.730469 110.394531 C 65.9375 119.75 68.285156 135.015625 76.808594 141.699219 C 75.398438 148.636719 74.984375 155.628906 75.566406 162.683594 C 71.269531 157.214844 64.800781 153.125 58.625 152.746094 C 58.351562 152.746094 58.085938 152.796875 57.828125 152.902344 C 57.574219 153.007812 57.347656 153.15625 57.152344 153.351562 C 56.957031 153.546875 56.804688 153.769531 56.699219 154.023438 C 56.59375 154.28125 56.539062 154.542969 56.539062 154.820312 C 57.15625 165.265625 66.761719 177.042969 77.378906 178.636719 C 78.507812 184.492188 80.121094 190.210938 82.21875 195.792969 C 76.621094 192.269531 69.65625 190.539062 63.96875 191.984375 C 62.960938 192.234375 62.121094 193.492188 62.515625 194.535156 C 66.238281 204.265625 78.828125 212.574219 89.40625 211.003906 C 90.273438 212.511719 91.179688 213.996094 92.121094 215.457031 C 93.066406 216.917969 94.042969 218.355469 95.058594 219.765625 C 96.074219 221.179688 97.121094 222.5625 98.207031 223.921875 C 99.289062 225.28125 100.40625 226.613281 101.558594 227.917969 C 102.710938 229.21875 103.890625 230.492188 105.105469 231.738281 C 106.320312 232.980469 107.566406 234.195312 108.84375 235.375 C 110.117188 236.554688 111.421875 237.703125 112.753906 238.820312 C 114.085938 239.9375 115.445312 241.019531 116.835938 242.066406 C 118.222656 243.113281 119.632812 244.125 121.070312 245.101562 C 122.507812 246.078125 123.972656 247.019531 125.457031 247.921875 C 126.941406 248.824219 128.445312 249.691406 129.976562 250.515625 C 131.503906 251.34375 133.050781 252.132812 134.621094 252.882812 C 136.1875 253.632812 137.773438 254.34375 139.375 255.011719 C 140.980469 255.683594 142.597656 256.3125 144.234375 256.902344 C 145.867188 257.492188 147.515625 258.039062 149.179688 258.542969 C 150.839844 259.050781 152.515625 259.515625 154.199219 259.9375 C 155.886719 260.359375 157.582031 260.738281 159.285156 261.074219 C 160.992188 261.410156 162.703125 261.707031 164.421875 261.957031 C 166.140625 262.207031 167.867188 262.414062 169.59375 262.578125 C 171.324219 262.742188 173.058594 262.863281 174.792969 262.941406 C 176.53125 263.019531 178.265625 263.054688 180.003906 263.042969 C 181.742188 263.035156 183.476562 262.980469 185.210938 262.882812 C 186.945312 262.785156 188.675781 262.644531 190.40625 262.460938 C 192.132812 262.277344 193.855469 262.050781 195.570312 261.78125 C 197.289062 261.507812 198.996094 261.195312 200.695312 260.839844 C 202.398438 260.484375 204.089844 260.085938 205.769531 259.644531 C 207.449219 259.203125 209.117188 258.71875 210.773438 258.195312 C 212.429688 257.671875 214.074219 257.105469 215.703125 256.496094 C 217.328125 255.890625 218.941406 255.242188 220.539062 254.554688 C 222.132812 253.863281 223.710938 253.136719 225.269531 252.371094 C 226.828125 251.601562 228.367188 250.796875 229.886719 249.949219 C 231.40625 249.105469 232.902344 248.222656 234.375 247.304688 C 235.671875 246.488281 236.960938 245.632812 238.226562 244.753906 C 240.277344 247.035156 242.433594 249.21875 244.695312 251.292969 C 251.296875 257.332031 260.050781 263.3125 269.476562 261.484375 C 279.050781 259.628906 281.761719 248.441406 281.703125 240.019531 C 281.632812 229.734375 277.535156 220.210938 272.957031 211.1875 C 282.789062 210.980469 293.425781 203.320312 296.785156 194.515625 C 297.1875 193.503906 296.355469 192.234375 295.347656 191.984375 Z M 298.257812 157.300781 C 296.621094 164.429688 290.015625 172.367188 282.980469 174.25 C 283.726562 167.167969 291.132812 159.199219 298.257812 157.300781 Z M 61.0625 157.300781 C 68.199219 159.199219 75.605469 167.15625 76.339844 174.25 C 69.292969 172.367188 62.695312 164.429688 61.0625 157.300781 Z M 277.269531 174.304688 C 270.894531 171.425781 265.503906 162.734375 265.429688 155.691406 C 270.984375 158.546875 276.199219 165.0625 277.675781 171.421875 C 277.542969 172.375 277.40625 173.335938 277.257812 174.304688 Z M 285.972656 114.804688 C 288.183594 121.773438 286.558594 131.984375 281.449219 137.191406 C 281.410156 137.101562 281.375 137.011719 281.339844 136.921875 C 281.257812 136.640625 281.171875 136.355469 281.082031 136.070312 C 281.023438 135.890625 280.941406 135.722656 280.835938 135.566406 C 278.867188 129.042969 281.171875 119.644531 285.960938 114.804688 Z M 277.328125 144.226562 C 278.0625 149.140625 278.433594 154.085938 278.4375 159.058594 C 278.4375 160.257812 278.410156 161.457031 278.363281 162.652344 C 275 157.070312 269.765625 152.457031 264.175781 150.691406 C 263.910156 150.621094 263.644531 150.601562 263.371094 150.636719 C 263.101562 150.675781 262.847656 150.757812 262.609375 150.894531 C 262.371094 151.03125 262.164062 151.207031 261.996094 151.421875 C 261.828125 151.636719 261.703125 151.875 261.628906 152.140625 C 259.78125 161.882812 266.972656 174.898438 276.503906 178.492188 C 275.324219 184.414062 273.625 190.179688 271.398438 195.792969 C 270.03125 189.003906 266.238281 182.46875 261.15625 178.882812 C 260.265625 178.253906 258.824219 178.710938 258.328125 179.632812 C 257.945312 180.335938 257.621094 181.0625 257.351562 181.816406 C 254.835938 177.886719 251.941406 174.261719 248.664062 170.945312 C 253.851562 161.167969 258.488281 151.140625 262.578125 140.855469 C 267.210938 143.464844 272.5625 144.828125 277.328125 144.226562 Z M 267.242188 205.832031 C 267.242188 205.890625 267.210938 205.949219 267.195312 206.003906 C 261.507812 201.644531 258.820312 191.101562 260.949219 184.054688 C 265.710938 188.773438 268.71875 197.40625 267.597656 204.179688 C 267.40625 204.714844 267.289062 205.265625 267.242188 205.832031 Z M 220.238281 201.015625 C 217.316406 199.796875 213.128906 200.007812 209.613281 201.332031 C 209.386719 200.6875 209.238281 200.027344 209.164062 199.347656 C 208.988281 196.742188 210.351562 196.445312 212.386719 196.042969 C 215.5625 195.414062 218.683594 195.921875 221.671875 197.050781 C 224.183594 198.011719 225.242188 194 222.777344 193.054688 C 220.148438 192.035156 217.425781 191.53125 214.605469 191.546875 C 214.710938 189.613281 215.140625 187.621094 217.191406 186.972656 C 219.089844 186.371094 221.523438 186.921875 223.375 187.402344 C 228.25 188.664062 230.472656 191.722656 231.609375 196.457031 C 232.863281 201.707031 234.019531 207.695312 239.171875 210.128906 C 238.46875 216.007812 236.257812 221.53125 230.417969 223.035156 C 227.402344 216.996094 223.355469 210.433594 215.84375 209.988281 C 214.402344 209.898438 213.003906 210.101562 211.648438 210.601562 C 209.761719 211.324219 209.132812 213.070312 207.796875 210.707031 C 204.648438 205.074219 215.839844 203.628906 219.121094 204.988281 C 221.597656 206.039062 222.671875 202.027344 220.238281 201.015625 Z M 208.214844 151.066406 L 207.992188 151.039062 C 207.683594 150.980469 207.382812 151.011719 207.089844 151.132812 C 206.796875 151.25 206.558594 151.4375 206.375 151.695312 C 206.089844 151.875 205.871094 152.113281 205.710938 152.40625 C 205.546875 152.699219 205.472656 153.015625 205.476562 153.351562 C 205.453125 154.273438 205.351562 155.1875 205.175781 156.09375 C 203.902344 154.542969 203.738281 152.261719 203.613281 150.226562 C 205.378906 148.601562 206.953125 146.808594 208.335938 144.84375 C 208.261719 146.9375 208.167969 149.011719 208.214844 151.066406 Z M 203.691406 160.351562 C 200.046875 167.644531 191.417969 172.585938 183.722656 173.535156 C 173.898438 174.753906 160.648438 170.425781 155.902344 161.089844 C 157.640625 159.785156 159.1875 158.144531 159.746094 155.988281 C 159.9375 155.242188 160.089844 154.488281 160.199219 153.722656 C 163.535156 155.894531 167.144531 157.417969 171.027344 158.292969 C 181.375 160.625 191.730469 158.714844 199.777344 153.261719 C 200.265625 156.097656 201.269531 158.753906 203.707031 160.371094 Z M 203.636719 144.351562 C 191.492188 159.675781 163.359375 158.941406 153.84375 141.007812 C 150.886719 135.4375 150.484375 128.316406 149.769531 122.175781 C 149.457031 119.488281 149.210938 116.789062 149.082031 114.074219 C 149.25 113.820312 149.355469 113.542969 149.386719 113.242188 C 149.945312 109.171875 150.960938 105.222656 152.433594 101.394531 C 152.457031 101.332031 152.464844 101.273438 152.484375 101.210938 C 156.390625 101.292969 160.292969 101.355469 164.199219 101.402344 C 178.96875 101.574219 193.738281 101.503906 208.496094 101.101562 C 209.707031 106.007812 210.453125 110.980469 210.738281 116.027344 C 210.75 116.472656 210.894531 116.871094 211.167969 117.21875 C 210.976562 122.007812 210.445312 126.757812 209.582031 131.472656 C 208.675781 136.265625 206.699219 140.566406 203.652344 144.371094 Z M 144.984375 114.34375 C 145.078125 116.355469 145.230469 118.351562 145.4375 120.339844 C 145.558594 121.527344 145.675781 122.738281 145.792969 123.964844 C 144.1875 122.652344 143.347656 119.941406 143.382812 118.175781 C 143.382812 117.457031 143.523438 116.761719 143.800781 116.097656 C 144.078125 115.433594 144.472656 114.847656 144.984375 114.34375 Z M 214.933594 121.386719 L 215.167969 117.261719 C 215.25 115.429688 215.296875 113.597656 215.316406 111.765625 C 217.085938 112.671875 217.652344 115.59375 217.425781 117.335938 C 217.316406 118.1875 217.042969 118.984375 216.605469 119.726562 C 216.167969 120.464844 215.605469 121.09375 214.914062 121.601562 Z M 212.457031 137.769531 C 212.445312 137.601562 212.417969 137.433594 212.367188 137.269531 C 212.367188 137.210938 212.414062 137.15625 212.4375 137.101562 C 213.683594 133.785156 214.226562 130.109375 214.554688 126.460938 C 215.714844 126.003906 216.773438 125.375 217.730469 124.578125 C 218.691406 123.78125 219.5 122.855469 220.160156 121.796875 C 222.488281 122 224.8125 122.210938 227.140625 122.453125 C 226.160156 125.167969 225.410156 127.945312 224.886719 130.78125 C 224.835938 131.015625 224.828125 131.246094 224.863281 131.480469 C 224.734375 131.757812 224.664062 132.046875 224.660156 132.351562 C 224.652344 132.65625 224.707031 132.949219 224.824219 133.230469 C 224.941406 133.511719 225.109375 133.757812 225.328125 133.96875 C 225.550781 134.175781 225.804688 134.332031 226.089844 134.433594 C 226.828125 134.691406 227.570312 134.9375 228.320312 135.195312 C 226.339844 141.585938 224.441406 148.007812 222.621094 154.453125 C 219.273438 153.277344 215.855469 152.371094 212.367188 151.726562 C 212.214844 147.042969 212.828125 142.394531 212.457031 137.734375 Z M 225.421875 159.953125 L 226.523438 155.988281 C 228.359375 149.46875 230.28125 142.964844 232.28125 136.484375 C 233.742188 136.921875 235.210938 137.34375 236.6875 137.726562 L 236.898438 137.78125 C 235.285156 144.6875 233.496094 151.554688 231.664062 158.40625 L 230.566406 162.433594 C 228.671875 169.476562 226.757812 176.480469 224.96875 183.53125 C 223.199219 182.964844 221.382812 182.65625 219.527344 182.605469 C 221.382812 174.996094 223.347656 167.433594 225.421875 159.917969 Z M 245.769531 125.007812 C 245.988281 126.769531 244.820312 129.570312 244.402344 131.304688 C 244.175781 132.253906 244.152344 133.566406 243.421875 134.25 C 242.691406 134.933594 241.777344 134.703125 240.855469 134.476562 C 240.621094 134.222656 240.332031 134.070312 239.996094 134.011719 C 237.097656 133.5 234.285156 132.695312 231.558594 131.59375 C 231.1875 131.457031 230.820312 131.457031 230.453125 131.59375 C 229.988281 131.433594 229.527344 131.28125 229.066406 131.089844 C 229.742188 127.703125 231.136719 120.8125 234.304688 120.679688 C 236.125 120.605469 238.613281 121.78125 240.335938 122.355469 C 241.339844 122.679688 242.316406 123.027344 243.292969 123.40625 C 243.984375 123.667969 244.679688 123.949219 245.363281 124.257812 C 246.433594 124.402344 246.5625 124.640625 245.769531 124.972656 Z M 248.6875 131.148438 C 248.84375 130.480469 249.101562 129.640625 249.363281 128.789062 C 250.378906 129.164062 251.34375 129.640625 252.261719 130.21875 C 253.84375 133.550781 256.109375 136.316406 259.0625 138.527344 C 255.101562 148.59375 250.59375 158.40625 245.542969 167.972656 C 242.386719 165.15625 239.003906 162.65625 235.386719 160.46875 C 237.328125 153.242188 239.226562 145.996094 240.914062 138.695312 C 242.585938 138.972656 244.269531 139.003906 245.632812 138.339844 C 248.035156 137.175781 248.160156 133.460938 248.6875 131.113281 Z M 235.347656 194.332031 C 234.285156 190.382812 232.28125 187.152344 228.8125 185.140625 C 230.546875 178.273438 232.40625 171.4375 234.253906 164.597656 C 242.871094 170.058594 255.863281 187.117188 256.160156 187.28125 C 255.453125 195.527344 258.871094 205.035156 265.105469 209.585938 C 263.113281 212.722656 260.792969 215.59375 258.144531 218.199219 C 252.722656 214.332031 247.667969 210.035156 242.980469 205.300781 C 242.757812 205.082031 242.496094 204.921875 242.199219 204.820312 C 241.902344 204.71875 241.597656 204.6875 241.285156 204.726562 C 240.972656 204.765625 240.6875 204.871094 240.421875 205.039062 C 240.160156 205.210938 239.945312 205.429688 239.785156 205.699219 C 236.617188 203.238281 236.320312 197.957031 235.347656 194.332031 Z M 276.3125 138.492188 C 276.429688 139.027344 276.523438 139.582031 276.628906 140.136719 C 269.726562 140.910156 260.546875 136.28125 256.859375 130.152344 C 263.503906 129.78125 272.015625 133.128906 276.3125 138.492188 Z M 274.542969 131.390625 C 268.542969 127.175781 260.539062 125.125 253.941406 126.359375 C 252.746094 125.660156 251.492188 125.097656 250.175781 124.664062 C 250.238281 123.910156 250.121094 123.1875 249.820312 122.492188 C 248.773438 120.355469 244.632812 119.472656 242.609375 118.75 C 239.707031 117.742188 235.96875 116.136719 232.84375 116.371094 C 231.410156 116.46875 230.242188 117.296875 229.265625 118.507812 C 226.6875 118.234375 224.113281 117.988281 221.535156 117.761719 C 221.597656 117.261719 221.625 116.757812 221.617188 116.253906 C 221.523438 112.765625 219.636719 108.878906 216.34375 107.703125 C 217.050781 105.492188 217.652344 103.25 218.148438 100.980469 C 218.152344 100.945312 218.152344 100.910156 218.148438 100.875 C 226.769531 100.59375 235.402344 100.15625 243.917969 98.996094 C 246.234375 98.6875 249.335938 98.523438 251.347656 97.15625 C 254.050781 95.300781 252.144531 92.292969 250.679688 90.289062 L 250.40625 89.9375 C 256.074219 95.746094 260.953125 102.15625 265.035156 109.171875 C 269.121094 116.183594 272.289062 123.59375 274.542969 131.390625 Z M 248.664062 94.722656 C 248.945312 94.8125 248.273438 94.957031 248.664062 94.722656 Z M 111.945312 92.710938 C 113.09375 91.023438 114.335938 89.414062 115.679688 87.878906 C 119.628906 83.222656 123.882812 78.824219 128.207031 74.507812 C 128.488281 74.222656 128.773438 73.953125 129.050781 73.667969 C 129.207031 73.546875 129.347656 73.410156 129.46875 73.253906 C 139.519531 63.183594 150.121094 53.730469 161.273438 44.890625 C 165.554688 41.539062 169.976562 38.175781 174.792969 35.605469 C 176.066406 34.925781 177.523438 34.09375 178.988281 33.953125 C 179.226562 33.921875 179.222656 33.902344 179.742188 34.089844 C 180.273438 34.316406 180.789062 34.570312 181.292969 34.855469 C 191.808594 40.597656 201.160156 49.308594 210.210938 57.03125 C 215.0625 61.171875 219.898438 65.367188 224.636719 69.65625 C 224.636719 69.65625 226.613281 71.894531 227.824219 72.570312 C 232.648438 77.03125 237.371094 81.625 241.894531 86.375 C 243.480469 88.050781 245.058594 89.75 246.503906 91.5625 C 246.84375 91.980469 247.59375 93.175781 248.105469 93.957031 C 247.332031 94.164062 246.566406 94.394531 245.773438 94.539062 C 236.472656 96.246094 226.746094 96.363281 217.324219 96.714844 C 203.40625 97.21875 189.46875 97.40625 175.539062 97.371094 C 166.496094 97.371094 157.449219 97.246094 148.441406 96.992188 C 147.855469 96.703125 147.261719 96.6875 146.660156 96.933594 C 142.734375 96.816406 138.804688 96.667969 134.871094 96.488281 C 127.1875 96.121094 118.574219 96.339844 111.113281 94.121094 C 111.359375 93.625 111.636719 93.15625 111.945312 92.710938 Z M 82.339844 139.390625 C 86.359375 133.515625 95.457031 129.773438 102.464844 130.152344 C 98.703125 136.421875 89.160156 141.132812 82.210938 140.074219 C 82.25 139.84375 82.292969 139.617188 82.339844 139.390625 Z M 79.152344 131.777344 C 78.652344 133.554688 78.25 135.351562 77.863281 137.15625 C 72.765625 131.949219 71.160156 121.757812 73.359375 114.804688 C 77.269531 118.769531 79.53125 125.796875 79.152344 131.777344 Z M 81.574219 174.542969 C 81.511719 174.078125 81.441406 173.617188 81.371094 173.144531 C 82.203125 166.265625 87.847656 158.804688 93.933594 155.6875 C 93.828125 162.921875 88.152344 171.890625 81.566406 174.527344 Z M 67.59375 195.632812 C 74.273438 195.328125 82.761719 199.574219 86.375 205.300781 C 86.660156 205.894531 86.96875 206.488281 87.269531 207.082031 C 80.023438 207.359375 71.285156 201.933594 67.59375 195.632812 Z M 92.164062 205.984375 C 92.144531 205.949219 92.125 205.914062 92.109375 205.878906 C 90.097656 198.925781 93.214844 189.183594 98.386719 184.054688 C 100.5 191.097656 97.816406 201.617188 92.148438 205.984375 Z M 94.214844 209.597656 C 102.546875 203.507812 105.847656 188.566406 101.007812 179.632812 C 100.871094 179.398438 100.691406 179.195312 100.472656 179.03125 C 100.253906 178.867188 100.011719 178.75 99.746094 178.679688 C 99.484375 178.609375 99.214844 178.589844 98.945312 178.625 C 98.671875 178.660156 98.417969 178.746094 98.179688 178.882812 C 92.882812 182.617188 88.984375 189.550781 87.777344 196.628906 C 86.136719 192.316406 84.71875 187.933594 83.519531 183.476562 C 83.160156 182.148438 82.816406 180.804688 82.515625 179.453125 L 82.351562 178.660156 C 92.128906 175.347656 99.613281 162.058594 97.722656 152.125 C 97.648438 151.859375 97.527344 151.621094 97.355469 151.402344 C 97.1875 151.1875 96.984375 151.011719 96.746094 150.875 C 96.507812 150.742188 96.25 150.65625 95.980469 150.621094 C 95.707031 150.585938 95.441406 150.605469 95.175781 150.675781 C 89.300781 152.53125 83.816406 157.527344 80.484375 163.5 C 80.421875 162.015625 80.390625 160.53125 80.390625 159.042969 C 80.390625 154.046875 80.773438 149.085938 81.535156 144.148438 C 91.496094 145.703125 104.230469 138.40625 107.550781 129.027344 C 107.625 128.761719 107.640625 128.492188 107.605469 128.222656 C 107.570312 127.949219 107.488281 127.691406 107.351562 127.453125 C 107.214844 127.214844 107.039062 127.011719 106.824219 126.84375 C 106.609375 126.671875 106.367188 126.550781 106.105469 126.476562 C 99.199219 124.917969 90.527344 127.136719 84.246094 131.785156 C 86.589844 123.640625 89.914062 115.921875 94.222656 108.625 C 98.527344 101.328125 103.679688 94.6875 109.671875 88.703125 C 109.058594 89.558594 108.460938 90.429688 107.933594 91.320312 C 107.285156 92.414062 106.585938 93.660156 106.621094 94.972656 C 106.625 95.144531 106.644531 95.3125 106.6875 95.476562 L 106.6875 95.515625 C 107.019531 97.695312 110.347656 98.226562 112.035156 98.535156 C 116.097656 99.246094 120.1875 99.71875 124.304688 99.953125 C 130.121094 100.390625 135.945312 100.6875 141.773438 100.898438 C 141.882812 102.910156 142.140625 104.898438 142.554688 106.867188 C 142.746094 108.03125 143.023438 109.179688 143.386719 110.300781 C 142.695312 110.792969 142.078125 111.367188 141.535156 112.019531 C 140.988281 112.675781 140.539062 113.386719 140.183594 114.160156 C 139.824219 114.929688 139.574219 115.734375 139.425781 116.574219 C 139.28125 117.410156 139.242188 118.253906 139.316406 119.101562 C 139.640625 123.285156 142.230469 127.722656 146.351562 128.660156 C 146.855469 132.542969 147.558594 136.417969 148.867188 139.929688 C 150.464844 144.105469 152.925781 147.6875 156.246094 150.675781 C 156.359375 153.003906 155.980469 155.203125 154.472656 156.863281 C 154.28125 155.917969 154.175781 154.964844 154.152344 154 C 154.148438 153.765625 154.105469 153.539062 154.023438 153.320312 C 153.9375 153.101562 153.820312 152.90625 153.664062 152.730469 C 153.511719 152.550781 153.332031 152.40625 153.128906 152.296875 C 152.921875 152.183594 152.703125 152.109375 152.472656 152.074219 C 152.023438 151.878906 151.566406 151.863281 151.105469 152.027344 C 144.628906 154.117188 138.332031 156.378906 132.566406 159.414062 C 140.464844 153.03125 143.4375 138.546875 138.652344 129.835938 C 138.152344 128.921875 136.71875 128.449219 135.820312 129.09375 C 129.714844 133.453125 125.476562 142.113281 125.160156 150.292969 C 119.265625 144.089844 109.332031 140.40625 101.710938 142.390625 C 100.707031 142.652344 99.863281 143.898438 100.261719 144.941406 C 104.105469 154.835938 117.179688 163.246094 127.871094 161.164062 C 128.222656 161.394531 128.605469 161.480469 129.019531 161.417969 C 125.988281 163.21875 123.195312 165.335938 120.644531 167.777344 C 118.089844 170.214844 115.847656 172.910156 113.910156 175.859375 C 105.789062 188.375 103.277344 203.390625 100.851562 217.929688 C 98.335938 215.390625 96.117188 212.613281 94.199219 209.597656 Z M 129.949219 156.269531 C 127.835938 149.328125 130.894531 139.476562 136.066406 134.285156 C 138.214844 141.296875 135.597656 151.863281 129.933594 156.246094 Z M 125.128906 157.375 C 117.878906 157.714844 109.085938 152.34375 105.347656 146.042969 C 112.683594 145.644531 122.269531 150.753906 125.117188 157.351562 Z M 183.925781 258.121094 C 174.679688 252.667969 166.105469 246.222656 157.585938 239.710938 C 155.464844 238.097656 153.398438 241.722656 155.488281 243.292969 C 162.242188 248.449219 169.023438 253.5625 176.136719 258.179688 C 169.011719 257.953125 161.992188 256.964844 155.082031 255.214844 C 148.167969 253.46875 141.523438 251 135.144531 247.8125 C 135.378906 238.34375 135.496094 228.875 135.492188 219.40625 C 135.492188 216.742188 131.351562 216.734375 131.351562 219.40625 C 131.351562 228.152344 131.25 236.894531 131.050781 245.636719 C 120.753906 239.863281 111.769531 232.484375 104.101562 223.503906 C 106.613281 208.679688 108.53125 193.03125 116.316406 179.871094 C 118.109375 176.753906 120.257812 173.90625 122.765625 171.332031 C 125.269531 168.753906 128.054688 166.527344 131.121094 164.652344 C 137.070312 161.0625 143.652344 158.785156 150.21875 156.652344 C 152.453125 171.347656 169.871094 179.179688 183.496094 177.726562 C 195.203125 176.484375 207.917969 167.804688 209.441406 155.382812 C 213.5625 155.984375 217.582031 156.988281 221.5 158.402344 C 219.214844 166.664062 217.066406 174.957031 215.054688 183.28125 C 215.050781 183.3125 215.050781 183.347656 215.054688 183.382812 C 211.410156 184.914062 210.5625 188.578125 210.421875 192.175781 C 209.675781 192.390625 208.960938 192.671875 208.269531 193.023438 C 203.835938 195.3125 205.070312 199.433594 205.90625 203.339844 C 202.933594 205.648438 201.625 209.09375 204.503906 213.25 C 205.148438 214.3125 205.972656 215.214844 206.96875 215.957031 C 204.863281 224.570312 202.109375 233.410156 201.324219 242.1875 C 201.035156 245.433594 201.089844 250.625 203.585938 253.140625 C 204.492188 254.046875 205.84375 254.285156 207.332031 254.199219 C 199.6875 256.441406 191.886719 257.738281 183.933594 258.09375 Z M 217.945312 247.847656 C 216.9375 248.617188 213.921875 248.597656 212.65625 248.828125 C 211.390625 249.058594 208.21875 250.265625 206.96875 249.976562 C 204.210938 249.347656 205.601562 240.867188 206.046875 238.636719 C 207.554688 230.929688 209.566406 223.28125 211.332031 215.625 C 212.167969 215.089844 212.972656 214.480469 213.949219 214.277344 C 214.90625 214.058594 215.867188 214.039062 216.832031 214.210938 C 214.792969 220.941406 213.757812 227.828125 213.726562 234.863281 C 213.726562 237.207031 213.511719 240.097656 215.921875 241.371094 C 217.429688 242.171875 218.4375 241.457031 218.703125 243.695312 C 218.859375 244.949219 218.859375 247.15625 217.949219 247.820312 Z M 222.597656 248.320312 C 223.097656 245.699219 223.515625 241.199219 221.351562 239.148438 C 220.375 238.222656 218.703125 238.339844 217.917969 237.394531 C 217.0625 236.355469 217.953125 231.203125 218.054688 229.816406 C 218.421875 225.140625 219.273438 220.554688 220.601562 216.058594 C 222.984375 218.019531 224.777344 221.136719 226.160156 223.824219 C 225.769531 224.101562 225.507812 224.46875 225.382812 224.929688 C 225.136719 225.246094 225.003906 225.601562 224.984375 226 C 224.96875 226.398438 225.070312 226.765625 225.285156 227.097656 C 227.050781 230.117188 228.984375 233.054688 231.035156 235.898438 C 231.085938 238.46875 231.140625 241.035156 231.183594 243.597656 C 228.402344 245.308594 225.542969 246.871094 222.601562 248.292969 Z M 277.421875 237.050781 C 278.121094 245.277344 276.417969 257.9375 265.785156 257.675781 C 257.347656 257.484375 250.300781 251.183594 244.648438 245.542969 C 241.140625 242.023438 237.914062 238.257812 234.96875 234.253906 C 234.867188 234.046875 234.730469 233.863281 234.5625 233.707031 C 233.054688 231.632812 231.621094 229.503906 230.265625 227.320312 C 232.105469 226.992188 233.828125 226.351562 235.433594 225.398438 C 237.039062 224.445312 238.429688 223.242188 239.601562 221.785156 C 242.003906 218.769531 242.894531 215.125 243.28125 211.398438 C 247.457031 215.316406 251.890625 218.917969 256.582031 222.199219 C 256.871094 222.554688 257.234375 222.804688 257.667969 222.949219 C 259.539062 224.230469 261.445312 225.460938 263.386719 226.648438 C 265.675781 228.023438 267.757812 224.4375 265.484375 223.066406 C 264.183594 222.273438 262.914062 221.460938 261.648438 220.636719 C 264.28125 217.941406 266.601562 215 268.609375 211.8125 C 272.710938 219.722656 276.648438 228.039062 277.429688 237.027344 Z M 272.027344 207.082031 C 274.835938 200.480469 284.386719 195.300781 291.734375 195.632812 C 288.027344 201.949219 279.269531 207.378906 272.027344 207.082031 Z M 272.027344 207.082031 " fill-opacity="1" fill-rule="nonzero"/></g><path fill="#3f2622" d="M 181.167969 223.511719 C 176.71875 221.621094 172.980469 218.789062 169.957031 215.015625 C 168.285156 212.941406 165.367188 215.890625 167.027344 217.949219 C 170.289062 221.996094 174.3125 225.046875 179.085938 227.09375 C 181.503906 228.121094 183.621094 224.554688 181.167969 223.511719 Z M 181.167969 223.511719 " fill-opacity="1" fill-rule="nonzero"/><path fill="#3f2622" d="M 190.535156 129.007812 C 188.09375 128.699219 185.871094 129.277344 183.621094 129.714844 C 183.429688 129.667969 183.234375 129.652344 183.039062 129.667969 C 183.539062 128.046875 181.882812 126.023438 180.097656 127.191406 C 178.992188 127.914062 176.863281 128.082031 176.835938 126.148438 C 176.835938 125.144531 178.09375 123.527344 178.503906 122.683594 C 179.515625 120.808594 180.070312 118.808594 180.164062 116.679688 C 180.21875 114.003906 176.074219 114.003906 176.015625 116.679688 C 175.9375 120.75 171.289062 124.363281 172.886719 128.542969 C 172.964844 128.75 173.054688 128.945312 173.164062 129.136719 C 171.875 128.910156 170.582031 128.863281 169.285156 129.007812 C 165.765625 129.460938 162.957031 131.441406 160.972656 134.292969 C 159.804688 135.976562 159.847656 137.175781 160.972656 136.769531 C 161.140625 136.710938 163.226562 135.691406 165.242188 136.511719 C 166.128906 151.011719 191.335938 150.328125 194.640625 136.554688 C 196.148438 135.933594 197.75 136.582031 198.160156 136.699219 C 200.097656 137.496094 200.167969 136.230469 198.832031 134.292969 C 196.863281 131.445312 194.042969 129.460938 190.535156 129.007812 Z M 169.429688 135.949219 C 171.367188 136.082031 173.34375 136.597656 175.261719 136.84375 C 178.351562 137.050781 181.441406 137.050781 184.53125 136.84375 C 186.539062 136.589844 188.550781 136.046875 190.5625 135.933594 C 188.132812 145.070312 170.304688 146.035156 169.4375 135.976562 Z M 169.429688 135.949219 " fill-opacity="1" fill-rule="nonzero"/><path fill="#3f2622" d="M 167.824219 115.027344 C 169.835938 116.792969 172.753906 113.871094 170.753906 112.097656 C 170.324219 111.703125 169.863281 111.347656 169.371094 111.027344 C 168.878906 110.710938 168.367188 110.429688 167.832031 110.195312 C 167.296875 109.957031 166.746094 109.765625 166.179688 109.621094 C 165.613281 109.472656 165.039062 109.371094 164.457031 109.316406 C 163.875 109.261719 163.292969 109.253906 162.710938 109.292969 C 162.125 109.332031 161.550781 109.421875 160.980469 109.554688 C 160.410156 109.6875 159.855469 109.863281 159.3125 110.085938 C 158.773438 110.308594 158.253906 110.574219 157.753906 110.882812 C 155.492188 112.285156 157.574219 115.871094 159.847656 114.460938 C 160.449219 114.070312 161.101562 113.78125 161.800781 113.601562 C 162.5 113.417969 163.210938 113.355469 163.929688 113.40625 C 164.648438 113.457031 165.34375 113.621094 166.011719 113.898438 C 166.675781 114.175781 167.28125 114.550781 167.824219 115.027344 Z M 167.824219 115.027344 " fill-opacity="1" fill-rule="nonzero"/><path fill="#3f2622" d="M 201.144531 110.882812 C 200.644531 110.574219 200.125 110.308594 199.585938 110.085938 C 199.042969 109.863281 198.488281 109.6875 197.917969 109.554688 C 197.351562 109.421875 196.773438 109.332031 196.191406 109.292969 C 195.605469 109.253906 195.023438 109.261719 194.441406 109.316406 C 193.859375 109.371094 193.285156 109.472656 192.71875 109.621094 C 192.152344 109.765625 191.601562 109.957031 191.066406 110.195312 C 190.53125 110.429688 190.019531 110.710938 189.527344 111.027344 C 189.039062 111.347656 188.574219 111.703125 188.144531 112.097656 C 186.132812 113.871094 189.082031 116.792969 191.074219 115.027344 C 191.617188 114.550781 192.222656 114.175781 192.890625 113.898438 C 193.554688 113.621094 194.25 113.457031 194.96875 113.40625 C 195.6875 113.355469 196.398438 113.417969 197.097656 113.601562 C 197.796875 113.78125 198.449219 114.070312 199.054688 114.460938 C 201.324219 115.851562 203.40625 112.285156 201.144531 110.882812 Z M 201.144531 110.882812 " fill-opacity="1" fill-rule="nonzero"/><g fill="#d5f1ed" fill-opacity="1"><g transform="translate(13.586579, 330.228995)"><g><path d="M -0.84375 -39.125 L -0.84375 -43 L 6.453125 -43 C 6.066406 -43.507812 5.753906 -44.238281 5.515625 -45.1875 C 5.285156 -46.132812 5.171875 -47.253906 5.171875 -48.546875 C 5.171875 -51.992188 6.515625 -54.929688 9.203125 -57.359375 C 11.890625 -59.796875 15.128906 -61.015625 18.921875 -61.015625 C 23.429688 -61.015625 28.007812 -59.332031 32.65625 -55.96875 C 37.3125 -52.613281 41.164062 -48.269531 44.21875 -42.9375 L 39.125 -42.9375 C 36.71875 -47.0625 33.648438 -50.46875 29.921875 -53.15625 C 26.203125 -55.851562 22.535156 -57.203125 18.921875 -57.203125 C 16.296875 -57.203125 14.054688 -56.347656 12.203125 -54.640625 C 10.347656 -52.941406 9.421875 -50.910156 9.421875 -48.546875 C 9.421875 -47.253906 9.539062 -46.132812 9.78125 -45.1875 C 10.019531 -44.238281 10.332031 -43.507812 10.71875 -43 L 18.078125 -43 L 18.078125 -39.125 L 10.71875 -39.125 L 10.71875 0 L 6.453125 0 L 6.453125 -39.125 Z M -0.84375 -39.125 "/></g></g><g transform="translate(30.758433, 330.228995)"><g><path d="M -0.84375 -39.125 L -0.84375 -43 L 49.265625 -43 L 49.265625 -39.125 L 26.53125 -39.125 L 26.53125 -27.5 C 27.476562 -29.09375 28.75 -30.351562 30.34375 -31.28125 C 31.9375 -32.207031 33.679688 -32.671875 35.578125 -32.671875 C 38.328125 -32.671875 40.660156 -31.539062 42.578125 -29.28125 C 44.492188 -27.019531 45.453125 -24.273438 45.453125 -21.046875 C 45.453125 -18.296875 44.738281 -15.570312 43.3125 -12.875 C 41.894531 -10.1875 39.894531 -7.765625 37.3125 -5.609375 L 33.4375 -8.203125 C 35.851562 -9.878906 37.75 -11.859375 39.125 -14.140625 C 40.5 -16.421875 41.1875 -18.722656 41.1875 -21.046875 C 41.1875 -23.066406 40.632812 -24.785156 39.53125 -26.203125 C 38.4375 -27.628906 37.117188 -28.34375 35.578125 -28.34375 C 33.597656 -28.34375 31.753906 -27.585938 30.046875 -26.078125 C 28.347656 -24.578125 27.175781 -22.617188 26.53125 -20.203125 L 26.53125 0 L 22.265625 0 L 22.265625 -12.90625 C 21.234375 -11.707031 19.972656 -10.757812 18.484375 -10.0625 C 17.003906 -9.375 15.40625 -9.03125 13.6875 -9.03125 C 10.582031 -9.03125 7.941406 -10.117188 5.765625 -12.296875 C 3.597656 -14.472656 2.515625 -17.109375 2.515625 -20.203125 C 2.515625 -23.648438 3.773438 -26.585938 6.296875 -29.015625 C 8.816406 -31.453125 11.835938 -32.671875 15.359375 -32.671875 C 16.398438 -32.671875 17.296875 -32.59375 18.046875 -32.4375 C 18.796875 -32.289062 19.34375 -32.085938 19.6875 -31.828125 L 18.84375 -27.5 C 18.332031 -27.800781 17.785156 -28.015625 17.203125 -28.140625 C 16.617188 -28.273438 16.003906 -28.34375 15.359375 -28.34375 C 13.035156 -28.34375 11.023438 -27.546875 9.328125 -25.953125 C 7.628906 -24.359375 6.78125 -22.441406 6.78125 -20.203125 C 6.78125 -18.304688 7.457031 -16.679688 8.8125 -15.328125 C 10.164062 -13.972656 11.789062 -13.296875 13.6875 -13.296875 C 15.320312 -13.296875 16.910156 -13.800781 18.453125 -14.8125 C 20.003906 -15.820312 21.273438 -17.191406 22.265625 -18.921875 L 22.265625 -39.125 Z M -0.84375 -39.125 "/></g></g></g><g fill="#d5f1ed" fill-opacity="1"><g transform="translate(79.110759, 330.228995)"><g><path d="M -0.84375 -39.125 L -0.84375 -43 L 46.671875 -43 L 46.671875 -39.125 L 39.375 -39.125 L 39.375 0 L 35.0625 0 L 35.0625 -20.65625 L 16.71875 -20.65625 C 15.5625 -19.800781 14.226562 -19.375 12.71875 -19.375 C 12.375 -19.375 12.039062 -19.414062 11.71875 -19.5 C 11.394531 -19.582031 11.144531 -19.664062 10.96875 -19.75 L 23.890625 -1.75 L 20.46875 0.453125 L 1.09375 -27.046875 L 4.578125 -29.640625 C 5.484375 -27.703125 6.550781 -26.148438 7.78125 -24.984375 C 9.007812 -23.816406 10.222656 -23.234375 11.421875 -23.234375 C 12.628906 -23.234375 13.648438 -23.640625 14.484375 -24.453125 C 15.328125 -25.273438 15.75 -26.289062 15.75 -27.5 L 15.75 -39.125 Z M 19.625 -24.921875 L 35.0625 -24.921875 L 35.0625 -39.125 L 20.015625 -39.125 L 20.015625 -27.5 C 20.015625 -26.59375 19.882812 -25.734375 19.625 -24.921875 Z M 19.625 -24.921875 "/></g></g><g transform="translate(124.880851, 330.228995)"><g><path d="M -0.84375 -39.125 L -0.84375 -43 L 18.078125 -43 L 18.078125 -39.125 L 10.71875 -39.125 L 10.71875 0 L 6.453125 0 L 6.453125 -39.125 Z M -0.84375 -39.125 "/></g></g></g><g fill="#d5f1ed" fill-opacity="1"><g transform="translate(142.052706, 330.228995)"><g><path d="M 1.296875 -25.765625 C 1.296875 -26.359375 1.59375 -26.867188 2.1875 -27.296875 C 2.789062 -27.734375 3.503906 -27.953125 4.328125 -27.953125 L 27.046875 -27.953125 L 27.046875 -39.125 L -0.84375 -39.125 L -0.84375 -43 L 38.671875 -43 L 38.671875 -39.125 L 31.375 -39.125 L 31.375 0 L 27.046875 0 L 27.046875 -23.625 L 14.59375 -23.625 C 13.90625 -23.625 13.300781 -23.453125 12.78125 -23.109375 C 12.269531 -22.765625 12.015625 -22.378906 12.015625 -21.953125 L 12.015625 -17.625 C 12.015625 -16.9375 11.796875 -16.332031 11.359375 -15.8125 C 10.929688 -15.300781 10.4375 -15.046875 9.875 -15.046875 C 8.882812 -15.046875 7.207031 -16.539062 4.84375 -19.53125 C 2.476562 -22.519531 1.296875 -24.597656 1.296875 -25.765625 Z M 1.296875 -25.765625 "/></g></g></g><g fill="#d5f1ed" fill-opacity="1"><g transform="translate(179.817873, 330.228995)"><g/></g></g><g fill="#d5f1ed" fill-opacity="1"><g transform="translate(193.038939, 330.228995)"><g><path d="M 1.25 -7.9375 C 1.25 -9.164062 1.703125 -10.394531 2.609375 -11.625 C 3.515625 -12.863281 4.5625 -13.484375 5.75 -13.484375 C 6.414062 -13.484375 7.15625 -13.226562 7.96875 -12.71875 C 8.78125 -12.21875 9.523438 -11.65625 10.203125 -11.03125 C 10.890625 -10.414062 11.847656 -9.851562 13.078125 -9.34375 C 14.316406 -8.84375 15.617188 -8.59375 16.984375 -8.59375 C 18.703125 -8.59375 20.203125 -8.957031 21.484375 -9.6875 C 22.765625 -10.414062 23.40625 -11.503906 23.40625 -12.953125 C 23.40625 -14.410156 22.6875 -15.6875 21.25 -16.78125 C 19.820312 -17.882812 18.082031 -18.890625 16.03125 -19.796875 C 13.976562 -20.703125 11.914062 -21.71875 9.84375 -22.84375 C 7.78125 -23.96875 6.03125 -25.5625 4.59375 -27.625 C 3.164062 -29.695312 2.453125 -32.164062 2.453125 -35.03125 C 2.453125 -39.613281 4.101562 -43.039062 7.40625 -45.3125 C 10.707031 -47.582031 14.695312 -48.71875 19.375 -48.71875 C 20.519531 -48.71875 21.71875 -48.648438 22.96875 -48.515625 C 24.226562 -48.390625 25.640625 -48.140625 27.203125 -47.765625 C 28.765625 -47.390625 30.039062 -46.78125 31.03125 -45.9375 C 32.03125 -45.101562 32.53125 -44.09375 32.53125 -42.90625 C 32.53125 -41.757812 32.164062 -40.566406 31.4375 -39.328125 C 30.707031 -38.097656 29.703125 -37.484375 28.421875 -37.484375 C 27.898438 -37.484375 26.78125 -37.898438 25.0625 -38.734375 C 23.34375 -39.578125 21.445312 -40 19.375 -40 C 17.164062 -40 15.507812 -39.613281 14.40625 -38.84375 C 13.3125 -38.070312 12.765625 -37.132812 12.765625 -36.03125 C 12.765625 -35.019531 13.28125 -34.09375 14.3125 -33.25 C 15.34375 -32.414062 16.628906 -31.703125 18.171875 -31.109375 C 19.722656 -30.515625 21.410156 -29.742188 23.234375 -28.796875 C 25.066406 -27.847656 26.753906 -26.8125 28.296875 -25.6875 C 29.835938 -24.5625 31.125 -22.984375 32.15625 -20.953125 C 33.195312 -18.929688 33.71875 -16.617188 33.71875 -14.015625 C 33.71875 -9.390625 32.195312 -5.785156 29.15625 -3.203125 C 26.113281 -0.628906 22.125 0.65625 17.1875 0.65625 C 12.914062 0.65625 9.191406 -0.222656 6.015625 -1.984375 C 2.835938 -3.742188 1.25 -5.726562 1.25 -7.9375 Z M 1.25 -7.9375 "/></g></g></g><g fill="#d5f1ed" fill-opacity="1"><g transform="translate(228.273064, 330.228995)"><g><path d="M 0.265625 -4.234375 C 0.265625 -4.359375 0.304688 -4.597656 0.390625 -4.953125 L 12.6875 -45.28125 C 13.039062 -46.382812 13.84375 -47.234375 15.09375 -47.828125 C 16.351562 -48.421875 17.796875 -48.71875 19.421875 -48.71875 C 21.054688 -48.71875 22.503906 -48.421875 23.765625 -47.828125 C 25.023438 -47.234375 25.828125 -46.382812 26.171875 -45.28125 L 38.546875 -4.953125 C 38.628906 -4.597656 38.671875 -4.359375 38.671875 -4.234375 C 38.671875 -3.085938 37.953125 -2.09375 36.515625 -1.25 C 35.085938 -0.414062 33.601562 0 32.0625 0 C 30.164062 0 29.039062 -0.640625 28.6875 -1.921875 L 26.4375 -10.1875 L 12.5 -10.1875 L 10.25 -1.921875 C 9.894531 -0.640625 8.769531 0 6.875 0 C 5.332031 0 3.84375 -0.414062 2.40625 -1.25 C 0.976562 -2.09375 0.265625 -3.085938 0.265625 -4.234375 Z M 14.609375 -18.109375 L 24.265625 -18.109375 L 19.4375 -35.828125 Z M 14.609375 -18.109375 "/></g></g></g><g fill="#d5f1ed" fill-opacity="1"><g transform="translate(267.209105, 330.228995)"><g><path d="M 0.53125 -43.765625 C 0.53125 -44.992188 0.789062 -46.0625 1.3125 -46.96875 C 1.84375 -47.875 2.617188 -48.328125 3.640625 -48.328125 L 32.1875 -48.328125 C 33.207031 -48.328125 33.976562 -47.875 34.5 -46.96875 C 35.03125 -46.0625 35.296875 -44.992188 35.296875 -43.765625 C 35.296875 -42.441406 35.019531 -41.328125 34.46875 -40.421875 C 33.925781 -39.523438 33.164062 -39.078125 32.1875 -39.078125 L 23.078125 -39.078125 L 23.078125 -3.171875 C 23.078125 -2.160156 22.566406 -1.378906 21.546875 -0.828125 C 20.535156 -0.273438 19.320312 0 17.90625 0 C 16.5 0 15.289062 -0.273438 14.28125 -0.828125 C 13.269531 -1.378906 12.765625 -2.160156 12.765625 -3.171875 L 12.765625 -39.078125 L 3.640625 -39.078125 C 2.671875 -39.078125 1.910156 -39.523438 1.359375 -40.421875 C 0.804688 -41.328125 0.53125 -42.441406 0.53125 -43.765625 Z M 0.53125 -43.765625 "/></g></g></g><g fill="#d5f1ed" fill-opacity="1"><g transform="translate(303.038185, 330.228995)"><g><path d="M 3.5625 -3.171875 L 3.5625 -45.21875 C 3.5625 -46.226562 4.066406 -47 5.078125 -47.53125 C 6.097656 -48.0625 7.3125 -48.328125 8.71875 -48.328125 C 10.132812 -48.328125 11.347656 -48.0625 12.359375 -47.53125 C 13.378906 -47 13.890625 -46.226562 13.890625 -45.21875 L 13.890625 -29.015625 L 27.03125 -29.015625 L 27.03125 -45.21875 C 27.03125 -46.226562 27.535156 -47 28.546875 -47.53125 C 29.566406 -48.0625 30.78125 -48.328125 32.1875 -48.328125 C 33.601562 -48.328125 34.816406 -48.0625 35.828125 -47.53125 C 36.847656 -47 37.359375 -46.226562 37.359375 -45.21875 L 37.359375 -3.171875 C 37.359375 -2.160156 36.847656 -1.378906 35.828125 -0.828125 C 34.816406 -0.273438 33.601562 0 32.1875 0 C 30.78125 0 29.566406 -0.273438 28.546875 -0.828125 C 27.535156 -1.378906 27.03125 -2.160156 27.03125 -3.171875 L 27.03125 -21.09375 L 13.890625 -21.09375 L 13.890625 -3.171875 C 13.890625 -2.160156 13.378906 -1.378906 12.359375 -0.828125 C 11.347656 -0.273438 10.132812 0 8.71875 0 C 7.3125 0 6.097656 -0.273438 5.078125 -0.828125 C 4.066406 -1.378906 3.5625 -2.160156 3.5625 -3.171875 Z M 3.5625 -3.171875 "/></g></g></g><g fill="#d5f1ed" fill-opacity="1"><g transform="translate(343.957386, 330.228995)"><g><path d="M 3.5625 -3.171875 L 3.5625 -45.21875 C 3.5625 -46.226562 4.066406 -47 5.078125 -47.53125 C 6.097656 -48.0625 7.3125 -48.328125 8.71875 -48.328125 C 10.132812 -48.328125 11.347656 -48.0625 12.359375 -47.53125 C 13.378906 -47 13.890625 -46.226562 13.890625 -45.21875 L 13.890625 -3.171875 C 13.890625 -2.160156 13.378906 -1.378906 12.359375 -0.828125 C 11.347656 -0.273438 10.132812 0 8.71875 0 C 7.3125 0 6.097656 -0.273438 5.078125 -0.828125 C 4.066406 -1.378906 3.5625 -2.160156 3.5625 -3.171875 Z M 3.5625 -3.171875 "/></g></g></g></svg>